{"accessors" : [{"bufferView" : 0, "byteOffset" : 0, "componentType" : 5123, "count" : 16884, "type" : "SCALAR", "max" : [4519], "min" : [0]}, {"bufferView" : 1, "byteOffset" : 0, "componentType" : 5126, "count" : 4520, "type" : "VEC3", "max" : [1.1326335668563843, 1.2255841493606567, 1.1326349973678589], "min" : [-1.1326366662979126, -1.5630512237548828, -1.132635235786438], "name" : "POSITION"}, {"bufferView" : 1, "byteOffset" : 12, "componentType" : 5126, "count" : 4520, "type" : "VEC3", "max" : [1.0000044107437134, 1.0000044107437134, 1.0000044107437134], "min" : [-1.0000044107437134, -1.0000044107437134, -1.0000044107437134], "name" : "NORMAL"}, {"bufferView" : 1, "byteOffset" : 24, "componentType" : 5126, "count" : 4520, "type" : "VEC2", "max" : [1, 1.9900000095367432], "min" : [0, 1], "name" : "TEXCOORD_0"}, {"bufferView" : 0, "byteOffset" : 33768, "componentType" : 5123, "count" : 16884, "type" : "SCALAR", "max" : [4519], "min" : [0]}, {"bufferView" : 2, "byteOffset" : 0, "componentType" : 5126, "count" : 4520, "type" : "VEC3", "max" : [1.1326335668563843, 1.2255841493606567, 1.1326349973678589], "min" : [-1.1326366662979126, -1.5630512237548828, -1.132635235786438], "name" : "POSITION"}, {"bufferView" : 2, "byteOffset" : 12, "componentType" : 5126, "count" : 4520, "type" : "VEC3", "max" : [1.0000044107437134, 1.0000044107437134, 1.0000044107437134], "min" : [-1.0000044107437134, -1.0000044107437134, -1.0000044107437134], "name" : "NORMAL"}, {"bufferView" : 2, "byteOffset" : 24, "componentType" : 5126, "count" : 4520, "type" : "VEC2", "max" : [1, 1.9900000095367432], "min" : [0, 1], "name" : "TEXCOORD_0"}, {"bufferView" : 0, "byteOffset" : 67536, "componentType" : 5123, "count" : 16884, "type" : "SCALAR", "max" : [4519], "min" : [0]}, {"bufferView" : 3, "byteOffset" : 0, "componentType" : 5126, "count" : 4520, "type" : "VEC3", "max" : [1.1326335668563843, 1.2255841493606567, 1.1326349973678589], "min" : [-1.1326366662979126, -1.5630512237548828, -1.132635235786438], "name" : "POSITION"}, {"bufferView" : 3, "byteOffset" : 12, "componentType" : 5126, "count" : 4520, "type" : "VEC3", "max" : [1.0000044107437134, 1.0000044107437134, 1.0000044107437134], "min" : [-1.0000044107437134, -1.0000044107437134, -1.0000044107437134], "name" : "NORMAL"}, {"bufferView" : 3, "byteOffset" : 24, "componentType" : 5126, "count" : 4520, "type" : "VEC2", "max" : [1, 1.9900000095367432], "min" : [0, 1], "name" : "TEXCOORD_0"}, {"bufferView" : 0, "byteOffset" : 101304, "componentType" : 5123, "count" : 16884, "type" : "SCALAR", "max" : [4519], "min" : [0]}, {"bufferView" : 4, "byteOffset" : 0, "componentType" : 5126, "count" : 4520, "type" : "VEC3", "max" : [1.1326335668563843, 1.2255841493606567, 1.1326349973678589], "min" : [-1.1326366662979126, -1.5630512237548828, -1.132635235786438], "name" : "POSITION"}, {"bufferView" : 4, "byteOffset" : 12, "componentType" : 5126, "count" : 4520, "type" : "VEC3", "max" : [1.0000044107437134, 1.0000044107437134, 1.0000044107437134], "min" : [-1.0000044107437134, -1.0000044107437134, -1.0000044107437134], "name" : "NORMAL"}, {"bufferView" : 4, "byteOffset" : 24, "componentType" : 5126, "count" : 4520, "type" : "VEC2", "max" : [1, 1.9900000095367432], "min" : [0, 1], "name" : "TEXCOORD_0"}, {"bufferView" : 0, "byteOffset" : 135072, "componentType" : 5123, "count" : 3462, "type" : "SCALAR", "max" : [752], "min" : [0]}, {"bufferView" : 5, "byteOffset" : 0, "componentType" : 5126, "count" : 753, "type" : "VEC3", "max" : [4.21481466293335, 1, 1.000000238418579], "min" : [-0.9999990463256836, -0.7116813659667969, -1], "name" : "POSITION"}, {"bufferView" : 5, "byteOffset" : 12, "componentType" : 5126, "count" : 753, "type" : "VEC3", "max" : [1.0000044107437134, 1.0000044107437134, 1.0000044107437134], "min" : [-1.0000044107437134, -1.0000044107437134, -1.0000044107437134], "name" : "NORMAL"}, {"bufferView" : 5, "byteOffset" : 24, "componentType" : 5126, "count" : 753, "type" : "VEC2", "max" : [1, 1.5], "min" : [0, 1], "name" : "TEXCOORD_0"}, {"bufferView" : 0, "byteOffset" : 141996, "componentType" : 5123, "count" : 774, "type" : "SCALAR", "max" : [209], "min" : [0]}, {"bufferView" : 6, "byteOffset" : 0, "componentType" : 5126, "count" : 210, "type" : "VEC3", "max" : [25, 9.319289207458496, 25], "min" : [-25, -25, -25], "name" : "POSITION"}, {"bufferView" : 6, "byteOffset" : 12, "componentType" : 5126, "count" : 210, "type" : "VEC3", "max" : [1.0000044107437134, 1.0000044107437134, 1.0000044107437134], "min" : [-1.0000044107437134, -1.0000044107437134, -1.0000044107437134], "name" : "NORMAL"}, {"bufferView" : 6, "byteOffset" : 24, "componentType" : 5126, "count" : 210, "type" : "VEC2", "max" : [1, 2], "min" : [0.045454997569322586, 1.7638089656829834], "name" : "TEXCOORD_0"}, {"bufferView" : 0, "byteOffset" : 143544, "componentType" : 5123, "count" : 756, "type" : "SCALAR", "max" : [383], "min" : [0]}, {"bufferView" : 7, "byteOffset" : 0, "componentType" : 5126, "count" : 384, "type" : "VEC3", "max" : [1, 1, 1], "min" : [-1, -1, -1], "name" : "POSITION"}, {"bufferView" : 7, "byteOffset" : 12, "componentType" : 5126, "count" : 384, "type" : "VEC3", "max" : [0.9987983107566833, 1.0000044107437134, 0.9987983107566833], "min" : [-0.9987983107566833, -1.0000044107437134, -0.9987983107566833], "name" : "NORMAL"}, {"bufferView" : 7, "byteOffset" : 24, "componentType" : 5126, "count" : 384, "type" : "VEC2", "max" : [1, 1.9900000095367432], "min" : [0, 1], "name" : "TEXCOORD_0"}, {"bufferView" : 0, "byteOffset" : 145056, "componentType" : 5123, "count" : 1326, "type" : "SCALAR", "max" : [707], "min" : [0]}, {"bufferView" : 8, "byteOffset" : 0, "componentType" : 5126, "count" : 708, "type" : "VEC3", "max" : [5.007150173187256, 39.19740676879883, 1], "min" : [-2.9444382190704346, -1, -1], "name" : "POSITION"}, {"bufferView" : 8, "byteOffset" : 12, "componentType" : 5126, "count" : 708, "type" : "VEC3", "max" : [0.9999985694885254, 1.0000044107437134, 1.0000044107437134], "min" : [-1.0000044107437134, -1.0000044107437134, -1.0000044107437134], "name" : "NORMAL"}, {"bufferView" : 8, "byteOffset" : 24, "componentType" : 5126, "count" : 708, "type" : "VEC2", "max" : [1, 2], "min" : [0, 1], "name" : "TEXCOORD_0"}, {"bufferView" : 0, "byteOffset" : 147708, "componentType" : 5123, "count" : 5916, "type" : "SCALAR", "max" : [1757], "min" : [0]}, {"bufferView" : 9, "byteOffset" : 0, "componentType" : 5126, "count" : 1758, "type" : "VEC3", "max" : [5.007150173187256, 53.771629333496094, 10.99161148071289], "min" : [-2.9444382190704346, -1, -18.59410858154297], "name" : "POSITION"}, {"bufferView" : 9, "byteOffset" : 12, "componentType" : 5126, "count" : 1758, "type" : "VEC3", "max" : [1.0000044107437134, 1.0000044107437134, 1.0000044107437134], "min" : [-1.0000044107437134, -1.0000044107437134, -1.0000044107437134], "name" : "NORMAL"}, {"bufferView" : 9, "byteOffset" : 24, "componentType" : 5126, "count" : 1758, "type" : "VEC2", "max" : [1, 2], "min" : [0, 0.9999998807907104], "name" : "TEXCOORD_0"}, {"bufferView" : 0, "byteOffset" : 159540, "componentType" : 5123, "count" : 14934, "type" : "SCALAR", "max" : [6852], "min" : [0]}, {"bufferView" : 10, "byteOffset" : 0, "componentType" : 5126, "count" : 6853, "type" : "VEC3", "max" : [10.353584289550781, 0.04926621913909912, 1.0000133514404297], "min" : [-10.353583335876465, -2.493967294692993, -0.9999865889549255], "name" : "POSITION"}, {"bufferView" : 10, "byteOffset" : 12, "componentType" : 5126, "count" : 6853, "type" : "VEC3", "max" : [1.0000044107437134, 1.0000044107437134, 1.0000044107437134], "min" : [-1.0000044107437134, -1.0000044107437134, -1.0000044107437134], "name" : "NORMAL"}, {"bufferView" : 10, "byteOffset" : 24, "componentType" : 5126, "count" : 6853, "type" : "VEC2", "max" : [0.875, 2], "min" : [0.125, 1], "name" : "TEXCOORD_0"}, {"bufferView" : 0, "byteOffset" : 189408, "componentType" : 5123, "count" : 10080, "type" : "SCALAR", "max" : [6684], "min" : [0]}, {"bufferView" : 11, "byteOffset" : 0, "componentType" : 5126, "count" : 6685, "type" : "VEC3", "max" : [335.0938720703125, 47, 306.3837585449219], "min" : [-329.7664794921875, -0.7215371131896973, -419.5832214355469], "name" : "POSITION"}, {"bufferView" : 11, "byteOffset" : 12, "componentType" : 5126, "count" : 6685, "type" : "VEC3", "max" : [0.9996317028999329, 1.0000044107437134, 0.9999492764472961], "min" : [-0.999918520450592, -1.0000044107437134, -0.9999513626098633], "name" : "NORMAL"}, {"bufferView" : 0, "byteOffset" : 209568, "componentType" : 5123, "count" : 3870, "type" : "SCALAR", "max" : [1657], "min" : [0]}, {"bufferView" : 12, "byteOffset" : 0, "componentType" : 5126, "count" : 1658, "type" : "VEC3", "max" : [335.0938720703125, 47, 306.3837585449219], "min" : [-329.7664794921875, 2.700000047683716, -419.5832214355469], "name" : "POSITION"}, {"bufferView" : 12, "byteOffset" : 12, "componentType" : 5126, "count" : 1658, "type" : "VEC3", "max" : [0, 1.0000044107437134, 0], "min" : [0, 1.0000044107437134, 0], "name" : "NORMAL"}, {"bufferView" : 0, "byteOffset" : 217308, "componentType" : 5123, "count" : 255, "type" : "SCALAR", "max" : [88], "min" : [0]}, {"bufferView" : 13, "byteOffset" : 0, "componentType" : 5126, "count" : 89, "type" : "VEC3", "max" : [-7.121143341064453, 0, -82.24980163574219], "min" : [-91.49073791503906, 0, -148.52943420410156], "name" : "POSITION"}, {"bufferView" : 13, "byteOffset" : 12, "componentType" : 5126, "count" : 89, "type" : "VEC3", "max" : [0, 1.0000044107437134, 0], "min" : [0, 1.0000044107437134, 0], "name" : "NORMAL"}, {"bufferView" : 0, "byteOffset" : 217820, "componentType" : 5123, "count" : 240, "type" : "SCALAR", "max" : [62], "min" : [0]}, {"bufferView" : 14, "byteOffset" : 0, "componentType" : 5126, "count" : 63, "type" : "VEC3", "max" : [1, 0, 1], "min" : [-1, 0, -1], "name" : "POSITION"}, {"bufferView" : 14, "byteOffset" : 12, "componentType" : 5126, "count" : 63, "type" : "VEC3", "max" : [0, 1.0000044107437134, 0], "min" : [0, 1.0000044107437134, 0], "name" : "NORMAL"}, {"bufferView" : 14, "byteOffset" : 24, "componentType" : 5126, "count" : 63, "type" : "VEC2", "max" : [1, 2], "min" : [0, 1], "name" : "TEXCOORD_0"}, {"bufferView" : 0, "byteOffset" : 218300, "componentType" : 5123, "count" : 17454, "type" : "SCALAR", "max" : [4157], "min" : [0]}, {"bufferView" : 15, "byteOffset" : 0, "componentType" : 5126, "count" : 4158, "type" : "VEC3", "max" : [1, 6.129443168640137, 5.136401176452637], "min" : [-2.4724960327148438, -1.077493667602539, -1.23179292678833], "name" : "POSITION"}, {"bufferView" : 15, "byteOffset" : 12, "componentType" : 5126, "count" : 4158, "type" : "VEC3", "max" : [1.0000044107437134, 1.0000044107437134, 1.0000044107437134], "min" : [-1.0000044107437134, -1.0000044107437134, -1.0000044107437134], "name" : "NORMAL"}, {"bufferView" : 15, "byteOffset" : 24, "componentType" : 5126, "count" : 4158, "type" : "VEC2", "max" : [1, 2], "min" : [0, 1], "name" : "TEXCOORD_0"}], "asset" : {"generator" : "Aspose.3D 24.4.1", "version" : "2.0"}, "buffers" : [{"uri" : "data:application/octet-stream;base64,", "byteLength" : 1510584}], "bufferViews" : [{"buffer" : 0, "byteOffset" : 0, "byteLength" : 253208, "target" : 34963}, {"buffer" : 0, "byteOffset" : 253212, "byteLength" : 144640, "byteStride" : 32, "target" : 34962}, {"buffer" : 0, "byteOffset" : 397856, "byteLength" : 144640, "byteStride" : 32, "target" : 34962}, {"buffer" : 0, "byteOffset" : 542500, "byteLength" : 144640, "byteStride" : 32, "target" : 34962}, {"buffer" : 0, "byteOffset" : 687144, "byteLength" : 144640, "byteStride" : 32, "target" : 34962}, {"buffer" : 0, "byteOffset" : 831788, "byteLength" : 24096, "byteStride" : 32, "target" : 34962}, {"buffer" : 0, "byteOffset" : 855888, "byteLength" : 6720, "byteStride" : 32, "target" : 34962}, {"buffer" : 0, "byteOffset" : 862612, "byteLength" : 12288, "byteStride" : 32, "target" : 34962}, {"buffer" : 0, "byteOffset" : 874904, "byteLength" : 22656, "byteStride" : 32, "target" : 34962}, {"buffer" : 0, "byteOffset" : 897564, "byteLength" : 56256, "byteStride" : 32, "target" : 34962}, {"buffer" : 0, "byteOffset" : 953824, "byteLength" : 219296, "byteStride" : 32, "target" : 34962}, {"buffer" : 0, "byteOffset" : 1173124, "byteLength" : 160440, "byteStride" : 24, "target" : 34962}, {"buffer" : 0, "byteOffset" : 1333568, "byteLength" : 39792, "byteStride" : 24, "target" : 34962}, {"buffer" : 0, "byteOffset" : 1373364, "byteLength" : 2136, "byteStride" : 24, "target" : 34962}, {"buffer" : 0, "byteOffset" : 1375504, "byteLength" : 2016, "byteStride" : 32, "target" : 34962}, {"buffer" : 0, "byteOffset" : 1377524, "byteLength" : 133056, "byteStride" : 32, "target" : 34962}], "materials" : [{"name" : "wall", "pbrMetallicRoughness" : {"baseColorFactor" : [1, 0.5, 0.20000000298023224, 1], "metallicFactor" : 0, "roughnessFactor" : 0.4000000059604645}, "emissiveFactor" : [0, 0, 0], "alphaMode" : "OPAQUE", "doubleSided" : true}, {"name" : "wall", "pbrMetallicRoughness" : {"baseColorFactor" : [1, 0.5, 0.20000000298023224, 1], "metallicFactor" : 0, "roughnessFactor" : 0.4000000059604645}, "emissiveFactor" : [0, 0, 0], "alphaMode" : "OPAQUE", "doubleSided" : true}, {"name" : "wall", "pbrMetallicRoughness" : {"baseColorFactor" : [1, 0.5, 0.20000000298023224, 1], "metallicFactor" : 0, "roughnessFactor" : 0.4000000059604645}, "emissiveFactor" : [0, 0, 0], "alphaMode" : "OPAQUE", "doubleSided" : true}, {"name" : "wall", "pbrMetallicRoughness" : {"baseColorFactor" : [1, 0.5, 0.20000000298023224, 1], "metallicFactor" : 0, "roughnessFactor" : 0.4000000059604645}, "emissiveFactor" : [0, 0, 0], "alphaMode" : "OPAQUE", "doubleSided" : true}, {"name" : "wall", "pbrMetallicRoughness" : {"baseColorFactor" : [1, 0.5, 0.20000000298023224, 1], "metallicFactor" : 0, "roughnessFactor" : 0.4000000059604645}, "emissiveFactor" : [0, 0, 0], "alphaMode" : "OPAQUE", "doubleSided" : true}, {"name" : "wall", "pbrMetallicRoughness" : {"baseColorFactor" : [1, 0.5, 0.20000000298023224, 1], "metallicFactor" : 0, "roughnessFactor" : 0.4000000059604645}, "emissiveFactor" : [0, 0, 0], "alphaMode" : "OPAQUE", "doubleSided" : true}, {"name" : "wall", "pbrMetallicRoughness" : {"baseColorFactor" : [1, 0.5, 0.20000000298023224, 1], "metallicFactor" : 0, "roughnessFactor" : 0.4000000059604645}, "emissiveFactor" : [0, 0, 0], "alphaMode" : "OPAQUE", "doubleSided" : true}, {"name" : "wall", "pbrMetallicRoughness" : {"baseColorFactor" : [1, 0.5, 0.20000000298023224, 1], "metallicFactor" : 0, "roughnessFactor" : 0.4000000059604645}, "emissiveFactor" : [0, 0, 0], "alphaMode" : "OPAQUE", "doubleSided" : true}, {"name" : "wall", "pbrMetallicRoughness" : {"baseColorFactor" : [1, 0.5, 0.20000000298023224, 1], "metallicFactor" : 0, "roughnessFactor" : 0.4000000059604645}, "emissiveFactor" : [0, 0, 0], "alphaMode" : "OPAQUE", "doubleSided" : true}, {"name" : "roof", "pbrMetallicRoughness" : {"baseColorFactor" : [0.28999999165534973, 0.25, 0.20999999344348907, 1], "metallicFactor" : 0, "roughnessFactor" : 0.4000000059604645}, "emissiveFactor" : [0, 0, 0], "alphaMode" : "OPAQUE", "doubleSided" : true}, {"name" : "vegetation", "pbrMetallicRoughness" : {"baseColorFactor" : [0.007000000216066837, 0.5580000281333923, 0.004999999888241291, 1], "metallicFactor" : 0, "roughnessFactor" : 0.4000000059604645}, "emissiveFactor" : [0, 0, 0], "alphaMode" : "OPAQUE", "doubleSided" : true}, {"name" : "water", "pbrMetallicRoughness" : {"baseColorFactor" : [0.12538471817970276, 0.321261465549469, 0.800133466720581, 1], "metallicFactor" : 0, "roughnessFactor" : 0.5}, "emissiveFactor" : [0, 0, 0], "alphaMode" : "OPAQUE", "doubleSided" : true}, {"name" : "wall", "pbrMetallicRoughness" : {"baseColorFactor" : [1, 0.5, 0.20000000298023224, 1], "metallicFactor" : 0, "roughnessFactor" : 0.4000000059604645}, "emissiveFactor" : [0, 0, 0], "alphaMode" : "OPAQUE", "doubleSided" : true}], "meshes" : [{"primitives" : [{"attributes" : {"POSITION" : 1, "NORMAL" : 2, "TEXCOORD_0" : 3}, "indices" : 0, "material" : 0, "mode" : 4}]}, {"primitives" : [{"attributes" : {"POSITION" : 5, "NORMAL" : 6, "TEXCOORD_0" : 7}, "indices" : 4, "material" : 1, "mode" : 4}]}, {"primitives" : [{"attributes" : {"POSITION" : 9, "NORMAL" : 10, "TEXCOORD_0" : 11}, "indices" : 8, "material" : 2, "mode" : 4}]}, {"primitives" : [{"attributes" : {"POSITION" : 13, "NORMAL" : 14, "TEXCOORD_0" : 15}, "indices" : 12, "material" : 3, "mode" : 4}]}, {"primitives" : [{"attributes" : {"POSITION" : 17, "NORMAL" : 18, "TEXCOORD_0" : 19}, "indices" : 16, "material" : 4, "mode" : 4}]}, {"primitives" : [{"attributes" : {"POSITION" : 21, "NORMAL" : 22, "TEXCOORD_0" : 23}, "indices" : 20, "mode" : 4}]}, {"primitives" : [{"attributes" : {"POSITION" : 25, "NORMAL" : 26, "TEXCOORD_0" : 27}, "indices" : 24, "mode" : 4}]}, {"primitives" : [{"attributes" : {"POSITION" : 29, "NORMAL" : 30, "TEXCOORD_0" : 31}, "indices" : 28, "material" : 5, "mode" : 4}]}, {"primitives" : [{"attributes" : {"POSITION" : 33, "NORMAL" : 34, "TEXCOORD_0" : 35}, "indices" : 32, "material" : 6, "mode" : 4}]}, {"primitives" : [{"attributes" : {"POSITION" : 37, "NORMAL" : 38, "TEXCOORD_0" : 39}, "indices" : 36, "material" : 7, "mode" : 4}]}, {"primitives" : [{"attributes" : {"POSITION" : 41, "NORMAL" : 42}, "indices" : 40, "material" : 8, "mode" : 4}, {"attributes" : {"POSITION" : 44, "NORMAL" : 45}, "indices" : 43, "material" : 9, "mode" : 4}]}, {"primitives" : [{"attributes" : {"POSITION" : 47, "NORMAL" : 48}, "indices" : 46, "material" : 10, "mode" : 4}]}, {"primitives" : [{"attributes" : {"POSITION" : 50, "NORMAL" : 51, "TEXCOORD_0" : 52}, "indices" : 49, "material" : 11, "mode" : 4}]}, {"primitives" : [{"attributes" : {"POSITION" : 54, "NORMAL" : 55, "TEXCOORD_0" : 56}, "indices" : 53, "material" : 12, "mode" : 4}]}], "nodes" : [{"matrix" : [1.0331774950027466, 0, 0, 0, 0, 1.0331774950027466, 0, 0, 0, 0, 1.0331774950027466, 0, -2.6382369995117188, 15.331244468688965, -20.13466453552246, 1], "mesh" : 0, "name" : "Nuclear"}, {"matrix" : [1.0331774950027466, 0, 0, 0, 0, 1.0331774950027466, 0, 0, 0, 0, 1.0331774950027466, 0, -0.4145669937133789, 15.331244468688965, -20.13466453552246, 1], "mesh" : 1, "name" : "Nuclear.001"}, {"matrix" : [1.0331774950027466, 0, 0, 0, 0, 1.0331774950027466, 0, 0, 0, 0, 1.0331774950027466, 0, 1.7554235458374023, 15.331244468688965, -20.13466453552246, 1], "mesh" : 2, "name" : "Nuclear.002"}, {"matrix" : [1.0331774950027466, 0, 0, 0, 0, 1.0331774950027466, 0, 0, 0, 0, 1.0331774950027466, 0, 3.9790945053100586, 15.331244468688965, -20.13466453552246, 1], "mesh" : 3, "name" : "Nuclear.003"}, {"matrix" : [0.7091984748840332, 0, 0, 0, 0, 0.7091984748840332, 0, 0, 0, 0, 0.7091984748840332, 0, 0.3040475845336914, 14.293069839477539, -21.983076095581055, 1], "mesh" : 4, "name" : "Sphere.001"}, {"matrix" : [1, 0, 0, 0, 0, 0.3950284719467163, 0, 0, 0, 0, 1, 0, 0, 10.351747512817383, 0, 1], "mesh" : 5, "name" : "Icosphere"}, {"matrix" : [23.206026077270508, 0, 0, 0, 0, 23.206026077270508, 0, 0, 0, 0, 23.206026077270508, 0, 0, 36.71621322631836, 0, 1], "mesh" : 6, "name" : "Capsule"}, {"matrix" : [0.03294208273291588, 0, 0, 0, 0, 0.03294208273291588, 0, 0, 0, 0, 0.03294208273291588, 0, 22.04166030883789, 14.009285926818848, 6.154687881469727, 1], "mesh" : 7, "name" : "base"}, {"matrix" : [0.03294208273291588, 0, 0, 0, 0, 0.03294208273291588, 0, 0, 0, 0, 0.03294208273291588, 0, 22.04166030883789, 14.009285926818848, 6.154687881469727, 1], "mesh" : 8, "name" : "base.001"}, {"matrix" : [-0.05258656610943518, -9.11471104830866E-10, 1.550300620791257E-07, 0, 9.114710402612491E-10, 0.052582927602406244, 0.0006183249232243427, 0, -1.5503005109662537E-07, 0.0006183249232243427, -0.052582927055013544, 0, -3.7284278869628906, 14.105446815490723, 21.81812858581543, 1], "mesh" : 9, "name" : "solar panel"}, {"matrix" : [0.05391061305999756, 0, 0, 0, 0, 0.05391061305999756, 0, 0, 0, 0, 0.05391061305999756, 0, 0, 14.060917854309082, 0, 1], "mesh" : 10, "name" : "map.osm_buildings"}, {"matrix" : [0.05391061305999756, 0, 0, 0, 0, 0.05391061305999756, 0, 0, 0, 0, 0.05391061305999756, 0, 0, 14.060917854309082, 0, 1], "mesh" : 11, "name" : "map.osm_vegetation"}, {"matrix" : [1.065996224134341, 0, -0.06970024124333399, 0, 0, 1.068272352218628, 0, 0, 0.06970024124333399, 0, 1.065996224134341, 0, -5.508431434631348, 14.085662841796875, 12.61048698425293, 1], "mesh" : 12, "name" : "Plane"}, {"matrix" : [0.40579951715073276, 0, 0.16811739512415008, 0, 0, 0.28355371952056885, 0, 0, -0.2638656267514373, 0, 0.6369153165223365, 0, -12.864346504211426, 14.23699951171875, -17.0073299407959, 1], "mesh" : 13, "name" : "Obj_TT_tube.003"}], "scene" : 0, "scenes" : [{"nodes" : [0, 1, 2, 3, 4, 5, 6, 7, 8, 9, 10, 11, 12, 13]}]}